# xmcd CD database file
#
# Track frame offsets:
#	150
#	18563
#	37005
#	52427
#	68663
#	82253
#	102174
#	116855
#	137811
#	159210
#	174119
#	193209
#
# Disc length: 2871 seconds
#
# Revision: 0
# Processed by: cddbd v1.5.1PL0 Copyright (c) Steve Scherf et al.
# Submitted via: CDex 1.50beta10
#
DISCID=ab0b350c
DTITLE=EG Kight - Takin' It Easy
DYEAR=2004
DGENRE=Blues
TTITLE0=I'll Believe It When I Feel It
TTITLE1=Nothin' Ever Hurt Me
TTITLE2=I Don't Wanna Start Over
TTITLE3=When You Were Mine
TTITLE4=I Ain't Got Nothin' But The Blues
TTITLE5=Can't Blame Nobody But Me
TTITLE6=Peach Pickin' Mama
TTITLE7=Southbound
TTITLE8=Coming Out Of The Pain
TTITLE9=I Ain't Got No Business Doin' Business Today
TTITLE10=Stay Awhile
TTITLE11=Takin' It Easy
EXTD=YEAR: 2004
EXTT0=
EXTT1=
EXTT2=
EXTT3=
EXTT4=
EXTT5=
EXTT6=
EXTT7=
EXTT8=
EXTT9=
EXTT10=
EXTT11=
PLAYORDER=
